<svg width="20" height="20" viewBox="0 0 20 20" fill="none" xmlns="http://www.w3.org/2000/svg">
<path d="M17.4622 15.3578L17.4621 15.3582C17.251 15.9983 16.7603 16.5099 16.2624 16.8719C15.7549 17.2408 15.1547 17.5171 14.5994 17.646L14.597 17.6465C14.2219 17.7323 13.7625 17.8099 13.0205 17.6835C12.3134 17.5631 11.3676 17.261 9.98444 16.6451L17.4622 15.3578ZM17.4622 15.3578C17.6238 14.8668 17.7065 14.4071 17.7365 14.0369C17.7515 13.8525 17.7541 13.6801 17.7438 13.53C17.7361 13.4174 17.7159 13.2022 17.6158 13.0121L17.6158 13.0121L17.6132 13.0072C17.4677 12.7356 17.2322 12.5869 17.1003 12.5094C17.0223 12.4637 16.9069 12.4037 16.802 12.3491C16.7448 12.3194 16.6908 12.2914 16.6477 12.2681L16.6454 12.2669C16.47 12.1731 15.958 11.9009 15.4488 11.6367C14.9769 11.3919 14.4314 11.1134 14.2095 11.0282M17.4622 15.3578L3.78749 10.8034M3.78749 10.8034L3.78322 10.7971C3.77868 10.7904 3.7733 10.7825 3.76713 10.7735C3.65747 10.6129 3.29901 10.0878 2.96109 9.37223C2.60874 8.62606 2.25 7.61427 2.25 6.54591C2.25 4.48632 3.2236 3.42153 3.62581 2.98165C3.63572 2.97082 3.64528 2.96036 3.65447 2.95028L3.6546 2.95013C4.13151 2.42725 4.84141 2.25 5.41748 2.25C5.57212 2.25 5.71277 2.25768 5.82116 2.2636C5.83124 2.26415 5.84105 2.26468 5.85056 2.26519C5.85739 2.2655 5.86467 2.2658 5.87237 2.26612C6.02892 2.27255 6.36076 2.28618 6.66399 2.49899C6.97198 2.71514 7.13894 3.05004 7.26314 3.36938L7.26374 3.37092C7.34944 3.59272 7.4723 3.91292 7.60414 4.25652C7.692 4.48549 7.78384 4.72485 7.87133 4.9524C7.98108 5.23784 8.08411 5.50507 8.16474 5.71229C8.2051 5.816 8.23942 5.90362 8.26597 5.97049C8.27926 6.00397 8.2902 6.03124 8.29874 6.05219L8.30898 6.07706C8.31069 6.08116 8.31176 6.08366 8.31228 6.08486C8.40615 6.29411 8.62295 6.82265 8.35943 7.38698C8.21564 7.71309 8.06902 7.8938 7.91324 8.0858C7.9014 8.10039 7.88951 8.11505 7.87756 8.12984C7.79417 8.23308 7.71128 8.32757 7.64016 8.40864C7.62692 8.42374 7.61408 8.43837 7.60173 8.45251C7.5197 8.54637 7.44938 8.6289 7.37919 8.72218L7.37365 8.72955L7.36792 8.73678C7.36456 8.74103 7.36137 8.74505 7.35832 8.7489C7.35115 8.75795 7.34477 8.766 7.33886 8.77351C7.57208 9.18923 8.19849 10.2395 9.07733 11.0799L9.07736 11.0799C10.1938 12.1475 11.0979 12.5394 11.5304 12.7269C11.5702 12.7442 11.6061 12.7597 11.6377 12.7739L11.6332 12.7839C11.6357 12.781 11.6381 12.778 11.6405 12.775M3.78749 10.8034L3.79189 10.8096M3.78749 10.8034L3.79189 10.8096M11.6405 12.775C11.6498 12.7788 11.6579 12.7808 11.6639 12.7817C11.6708 12.7827 11.6723 12.7819 11.6682 12.7825C11.6638 12.7832 11.6531 12.7855 11.6389 12.7929C11.6343 12.7953 11.6299 12.798 11.6256 12.8008L11.6113 12.8329L12.1645 13.3171M11.6405 12.775C11.6391 12.7745 11.6377 12.7739 11.6362 12.7732L11.6294 12.7886C11.6184 12.8018 11.6075 12.8146 11.5969 12.827L11.608 12.8366L11.3311 13.4584M11.6405 12.775C11.8275 12.5472 12.0566 12.2014 12.3261 11.7948C12.3708 11.7273 12.4166 11.6582 12.4636 11.5876L13.0881 12.0029L12.4619 11.5901C12.6536 11.2992 12.9233 11.0605 13.2814 10.9603C13.6279 10.8635 13.953 10.9257 14.2095 11.0282M12.1645 13.3171L11.6092 12.8376L11.3311 13.4584M12.1645 13.3171C11.9562 13.5552 11.6163 13.5854 11.3311 13.4584M12.1645 13.3171L11.3311 13.4584M14.2095 11.0282C14.2057 11.0267 14.202 11.0253 14.1984 11.024L13.9363 11.7267L14.218 11.0316C14.2152 11.0305 14.2123 11.0293 14.2095 11.0282ZM3.79189 10.8096C3.79153 10.8091 3.79194 10.8097 3.79344 10.812M3.79189 10.8096L3.79344 10.812M3.79344 10.812C3.79717 10.8177 3.8076 10.8336 3.82976 10.8681M3.79344 10.812L3.82976 10.8681M3.82976 10.8681C3.83479 10.8759 3.8402 10.8843 3.84596 10.8933M3.82976 10.8681L3.84596 10.8933M3.84596 10.8933C3.87 10.9307 3.90028 10.9778 3.93539 11.0318M3.84596 10.8933L3.93539 11.0318M3.93539 11.0318C4.0231 11.1667 4.14296 11.3481 4.29302 11.5635M3.93539 11.0318L4.29302 11.5635M4.29302 11.5635C4.59275 11.9938 5.01347 12.561 5.54236 13.1715M4.29302 11.5635L5.54236 13.1715M5.54236 13.1715C6.59185 14.3829 8.10484 15.8086 9.98426 16.645L5.54236 13.1715ZM11.6001 12.8232C11.6066 12.8158 11.6145 12.8087 11.6231 12.8026L11.6101 12.8319L11.6001 12.8232Z" stroke="#29292E" stroke-width="1.5" stroke-linecap="round"/>
</svg>
