<svg width="94" height="40" viewBox="0 0 94 40" fill="none" xmlns="http://www.w3.org/2000/svg">
<path fill-rule="evenodd" clip-rule="evenodd" d="M18.6937 16.7442L12.8743 10.9946H16.7299L19.823 14.0506H25.3666C27.7193 14.0506 29.6265 15.935 29.6265 18.2594C29.6265 20.5301 27.8064 22.3809 25.5289 22.4651L22.8107 19.7795V19.7745H25.3666C26.2136 19.7745 26.9002 19.0962 26.9002 18.2594C26.9002 17.4226 26.2136 16.7442 25.3666 16.7442H19.7435V16.7442H18.6937ZM9.86062 16.7442C7.60205 16.7442 5.77112 18.3591 5.77112 20.5906C5.77112 22.822 7.60205 24.631 9.86062 24.631H11.0415L13.6233 27.1818H8.45789C5.36655 26.5429 3.04479 23.8346 3.04479 20.5906C3.04479 16.8715 6.09634 14.0506 9.86062 14.0506C11.4712 14.0506 12.9546 14.6041 14.1212 15.5281L14.1795 15.5743L26.1238 27.1818H22.2358L12.3613 17.5873C11.6697 17.0582 10.8041 16.7442 9.86062 16.7442ZM2.70396 15.8768C3.64503 15.8768 4.40792 15.1231 4.40792 14.1933C4.40792 13.2636 3.64503 12.5098 2.70396 12.5098C1.76289 12.5098 1 13.2636 1 14.1933C1 15.1231 1.76289 15.8768 2.70396 15.8768Z" fill="#29292E"/>
<path d="M36.4097 27.1817V14.0424H39.3296V17.606L38.9861 16.5636C39.3786 15.6908 39.9921 15.0282 40.8263 14.5757C41.6769 14.1232 42.732 14.0505 43.9916 14.0505V16.7817C43.8607 16.7494 43.7381 16.7333 43.6236 16.7333C43.509 16.7171 43.3945 16.709 43.28 16.709C42.1186 16.709 41.1944 17.0484 40.5074 17.7272C39.8203 18.3898 39.4768 19.3838 39.4768 20.709V27.1817H36.4097Z" fill="#B90808"/>
<path d="M52.6325 27.1575C51.1766 27.1575 49.9007 26.8746 48.8047 26.309C47.7251 25.7272 46.8826 24.9353 46.2774 23.9332C45.6885 22.9312 45.367 21.9332 45.367 20.6565C45.367 19.3635 45.6533 18.2241 46.2258 17.2383C46.8147 16.2363 47.6163 15.4524 48.6305 14.8868C49.661 14.3211 50.8306 14.0383 52.1393 14.0383C53.4152 14.0383 54.5521 14.313 55.5499 14.8625C56.5477 15.412 57.3329 16.1878 57.9055 17.1898C58.478 18.1918 58.7643 19.3716 58.7643 20.7292C58.7643 20.8585 58.7561 21.0039 58.7397 21.1656C58.7397 21.3272 58.7315 21.4807 58.7152 21.6262H47.7962V19.614H57.0957L55.8934 20.2443C55.9098 19.5009 55.7544 18.8464 55.4272 18.2807C55.1001 17.7151 54.6502 17.2706 54.0777 16.9474C53.5215 16.6241 52.8754 16.4625 52.1393 16.4625C51.3868 16.4625 50.7243 16.6241 50.1518 16.9474C49.5956 17.2706 49.1539 17.7231 48.8268 18.305C48.516 18.8706 48.3606 19.5413 48.3606 20.3171V20.8019C48.3606 21.5777 48.5675 22.1231 48.9274 22.7211C49.2873 23.3191 49.7944 23.7797 50.4487 24.1029C51.103 24.4262 51.8555 24.5878 52.7061 24.5878C53.4422 24.5878 54.1047 24.4747 54.6936 24.2484C55.2825 24.0221 55.8059 23.6666 56.264 23.1817L57.9079 25.0484C57.319 25.7272 56.5748 26.2524 55.6751 26.6241C54.7917 26.9797 53.7775 27.1575 52.6325 27.1575Z" fill="#B90808"/>
<ellipse cx="80.0637" cy="10.6835" rx="1.70396" ry="1.6835" fill="#B90808"/>
<path fill-rule="evenodd" clip-rule="evenodd" d="M68.988 27.1818C67.9656 27.1818 66.8819 27.0686 66.0149 26.5838C65.4945 26.2928 65.0389 25.9144 64.6482 25.4486L64.6573 27.1575H61.7374V9H64.8046L64.791 15.7767C65.1635 15.3682 65.5879 15.0352 66.064 14.7778C66.9473 14.2929 67.9207 14.0505 68.9839 14.0505C70.2762 14.0505 71.4131 14.3252 72.3946 14.8747C73.3924 15.4242 74.1776 16.1919 74.7501 17.1778C75.339 18.1636 75.6335 19.3272 75.6335 20.6687C75.6335 22.0101 75.339 23.1737 74.7501 24.1596C74.1776 25.1454 73.3924 25.9212 72.3946 26.4868C71.4131 27.0363 70.0104 27.1818 68.988 27.1818ZM68.6404 24.7171C69.3765 24.7171 70.0308 24.5555 70.6034 24.2323C71.1923 23.9091 71.6585 23.4404 72.002 22.8262C72.3455 22.2121 72.5173 21.4929 72.5173 20.6687C72.5173 19.8283 72.3455 19.1091 72.002 18.5111C71.6585 17.8969 71.1923 17.4283 70.6034 17.105C70.0308 16.7818 69.3765 16.6202 68.6404 16.6202C67.9043 16.6202 67.2418 16.7818 66.6529 17.105C66.064 17.4283 65.5978 17.8969 65.2543 18.5111C64.9108 19.1091 64.739 19.8283 64.739 20.6687C64.739 21.4929 64.9108 22.2121 65.2543 22.8262C65.5978 23.4404 66.064 23.9091 66.6529 24.2323C67.2418 24.5555 67.9043 24.7171 68.6404 24.7171ZM78.5587 27.1818V14.0424H81.6258V27.1818H78.5587ZM87.2463 26.0666C88.0315 26.7939 89.1439 27.1575 90.5834 27.1575C91.1395 27.1575 91.6794 27.0848 92.2028 26.9394C92.3677 26.8935 92.5244 26.8405 92.673 26.7803V24.1373L92.669 24.1272C92.211 24.4828 91.6385 24.6606 90.9514 24.6606C90.3789 24.6606 89.9291 24.4909 89.6019 24.1515C89.2911 23.8121 89.1357 23.3353 89.1357 22.7212V16.5636H92.6445V14.0505H89.1357V11.1818H86.0686V14.0505H83.9093V16.5636H86.0686V22.7939C86.0686 24.2323 86.4612 25.3232 87.2463 26.0666Z" fill="#29292E"/>
</svg>
