<svg width="174" height="174" viewBox="0 0 174 174" fill="none" xmlns="http://www.w3.org/2000/svg">
<path d="M62.8621 0.793091H55.9656V7.68964H62.8621V0.793091Z" fill="black"/>
<path d="M90.4483 0.793091H83.5518V7.68964H90.4483V0.793091Z" fill="black"/>
<path d="M97.345 0.793091H90.4485V7.68964H97.345V0.793091Z" fill="black"/>
<path d="M111.138 0.793091H104.241V7.68964H111.138V0.793091Z" fill="black"/>
<path d="M118.034 0.793091H111.138V7.68964H118.034V0.793091Z" fill="black"/>
<path d="M83.5518 7.6897H76.6553V14.5862H83.5518V7.6897Z" fill="black"/>
<path d="M97.345 7.6897H90.4485V14.5862H97.345V7.6897Z" fill="black"/>
<path d="M118.034 7.6897H111.138V14.5862H118.034V7.6897Z" fill="black"/>
<path d="M69.7586 14.5862H62.8621V21.4827H69.7586V14.5862Z" fill="black"/>
<path d="M90.4483 14.5862H83.5518V21.4827H90.4483V14.5862Z" fill="black"/>
<path d="M111.138 14.5862H104.241V21.4827H111.138V14.5862Z" fill="black"/>
<path d="M118.034 14.5862H111.138V21.4827H118.034V14.5862Z" fill="black"/>
<path d="M62.8621 21.4828H55.9656V28.3793H62.8621V21.4828Z" fill="black"/>
<path d="M83.5518 21.4828H76.6553V28.3793H83.5518V21.4828Z" fill="black"/>
<path d="M90.4483 21.4828H83.5518V28.3793H90.4483V21.4828Z" fill="black"/>
<path d="M97.345 21.4828H90.4485V28.3793H97.345V21.4828Z" fill="black"/>
<path d="M118.034 21.4828H111.138V28.3793H118.034V21.4828Z" fill="black"/>
<path d="M62.8621 28.3793H55.9656V35.2758H62.8621V28.3793Z" fill="black"/>
<path d="M76.6553 28.3793H69.7588V35.2758H76.6553V28.3793Z" fill="black"/>
<path d="M83.5518 28.3793H76.6553V35.2758H83.5518V28.3793Z" fill="black"/>
<path d="M90.4483 28.3793H83.5518V35.2758H90.4483V28.3793Z" fill="black"/>
<path d="M104.242 28.3793H97.345V35.2758H104.242V28.3793Z" fill="black"/>
<path d="M111.138 28.3793H104.241V35.2758H111.138V28.3793Z" fill="black"/>
<path d="M118.034 28.3793H111.138V35.2758H118.034V28.3793Z" fill="black"/>
<path d="M62.8621 35.2759H55.9656V42.1724H62.8621V35.2759Z" fill="black"/>
<path d="M69.7586 35.2759H62.8621V42.1724H69.7586V35.2759Z" fill="black"/>
<path d="M90.4483 35.2759H83.5518V42.1724H90.4483V35.2759Z" fill="black"/>
<path d="M62.8621 42.1724H55.9656V49.0689H62.8621V42.1724Z" fill="black"/>
<path d="M76.6553 42.1724H69.7588V49.0689H76.6553V42.1724Z" fill="black"/>
<path d="M90.4483 42.1724H83.5518V49.0689H90.4483V42.1724Z" fill="black"/>
<path d="M104.242 42.1724H97.345V49.0689H104.242V42.1724Z" fill="black"/>
<path d="M118.034 42.1724H111.138V49.0689H118.034V42.1724Z" fill="black"/>
<path d="M62.8621 49.069H55.9656V55.9655H62.8621V49.069Z" fill="black"/>
<path d="M69.7586 49.069H62.8621V55.9655H69.7586V49.069Z" fill="black"/>
<path d="M76.6553 49.069H69.7588V55.9655H76.6553V49.069Z" fill="black"/>
<path d="M90.4483 49.069H83.5518V55.9655H90.4483V49.069Z" fill="black"/>
<path d="M118.034 49.069H111.138V55.9655H118.034V49.069Z" fill="black"/>
<path d="M7.68976 55.9655H0.793213V62.862H7.68976V55.9655Z" fill="black"/>
<path d="M35.2759 55.9655H28.3794V62.862H35.2759V55.9655Z" fill="black"/>
<path d="M49.0692 55.9655H42.1726V62.862H49.0692V55.9655Z" fill="black"/>
<path d="M55.9656 55.9655H49.0691V62.862H55.9656V55.9655Z" fill="black"/>
<path d="M62.8621 55.9655H55.9656V62.862H62.8621V55.9655Z" fill="black"/>
<path d="M69.7586 55.9655H62.8621V62.862H69.7586V55.9655Z" fill="black"/>
<path d="M124.931 55.9655H118.035V62.862H124.931V55.9655Z" fill="black"/>
<path d="M131.828 55.9655H124.931V62.862H131.828V55.9655Z" fill="black"/>
<path d="M138.724 55.9655H131.828V62.862H138.724V55.9655Z" fill="black"/>
<path d="M145.621 55.9655H138.724V62.862H145.621V55.9655Z" fill="black"/>
<path d="M152.517 55.9655H145.621V62.862H152.517V55.9655Z" fill="black"/>
<path d="M173.207 55.9655H166.311V62.862H173.207V55.9655Z" fill="black"/>
<path d="M14.5862 62.8621H7.6897V69.7586H14.5862V62.8621Z" fill="black"/>
<path d="M21.483 62.8621H14.5864V69.7586H21.483V62.8621Z" fill="black"/>
<path d="M28.3795 62.8621H21.4829V69.7586H28.3795V62.8621Z" fill="black"/>
<path d="M35.2759 62.8621H28.3794V69.7586H35.2759V62.8621Z" fill="black"/>
<path d="M55.9656 62.8621H49.0691V69.7586H55.9656V62.8621Z" fill="black"/>
<path d="M62.8621 62.8621H55.9656V69.7586H62.8621V62.8621Z" fill="black"/>
<path d="M83.5518 62.8621H76.6553V69.7586H83.5518V62.8621Z" fill="black"/>
<path d="M90.4483 62.8621H83.5518V69.7586H90.4483V62.8621Z" fill="black"/>
<path d="M97.345 62.8621H90.4485V69.7586H97.345V62.8621Z" fill="black"/>
<path d="M111.138 62.8621H104.241V69.7586H111.138V62.8621Z" fill="black"/>
<path d="M118.034 62.8621H111.138V69.7586H118.034V62.8621Z" fill="black"/>
<path d="M124.931 62.8621H118.035V69.7586H124.931V62.8621Z" fill="black"/>
<path d="M145.621 62.8621H138.724V69.7586H145.621V62.8621Z" fill="black"/>
<path d="M152.517 62.8621H145.621V69.7586H152.517V62.8621Z" fill="black"/>
<path d="M166.31 62.8621H159.414V69.7586H166.31V62.8621Z" fill="black"/>
<path d="M35.2759 69.7585H28.3794V76.6551H35.2759V69.7585Z" fill="black"/>
<path d="M49.0692 69.7585H42.1726V76.6551H49.0692V69.7585Z" fill="black"/>
<path d="M55.9656 69.7585H49.0691V76.6551H55.9656V69.7585Z" fill="black"/>
<path d="M69.7586 69.7585H62.8621V76.6551H69.7586V69.7585Z" fill="black"/>
<path d="M76.6553 69.7585H69.7588V76.6551H76.6553V69.7585Z" fill="black"/>
<path d="M90.4483 69.7585H83.5518V76.6551H90.4483V69.7585Z" fill="black"/>
<path d="M97.345 69.7585H90.4485V76.6551H97.345V69.7585Z" fill="black"/>
<path d="M111.138 69.7585H104.241V76.6551H111.138V69.7585Z" fill="black"/>
<path d="M138.724 69.7585H131.828V76.6551H138.724V69.7585Z" fill="black"/>
<path d="M145.621 69.7585H138.724V76.6551H145.621V69.7585Z" fill="black"/>
<path d="M152.517 69.7585H145.621V76.6551H152.517V69.7585Z" fill="black"/>
<path d="M159.414 69.7585H152.517V76.6551H159.414V69.7585Z" fill="black"/>
<path d="M14.5862 76.6552H7.6897V83.5517H14.5862V76.6552Z" fill="black"/>
<path d="M21.483 76.6552H14.5864V83.5517H21.483V76.6552Z" fill="black"/>
<path d="M35.2759 76.6552H28.3794V83.5517H35.2759V76.6552Z" fill="black"/>
<path d="M55.9656 76.6552H49.0691V83.5517H55.9656V76.6552Z" fill="black"/>
<path d="M90.4483 76.6552H83.5518V83.5517H90.4483V76.6552Z" fill="black"/>
<path d="M111.138 76.6552H104.241V83.5517H111.138V76.6552Z" fill="black"/>
<path d="M131.828 76.6552H124.931V83.5517H131.828V76.6552Z" fill="black"/>
<path d="M138.724 76.6552H131.828V83.5517H138.724V76.6552Z" fill="black"/>
<path d="M159.414 76.6552H152.517V83.5517H159.414V76.6552Z" fill="black"/>
<path d="M166.31 76.6552H159.414V83.5517H166.31V76.6552Z" fill="black"/>
<path d="M7.68976 83.5518H0.793213V90.4483H7.68976V83.5518Z" fill="black"/>
<path d="M28.3795 83.5518H21.4829V90.4483H28.3795V83.5518Z" fill="black"/>
<path d="M35.2759 83.5518H28.3794V90.4483H35.2759V83.5518Z" fill="black"/>
<path d="M49.0692 83.5518H42.1726V90.4483H49.0692V83.5518Z" fill="black"/>
<path d="M90.4483 83.5518H83.5518V90.4483H90.4483V83.5518Z" fill="black"/>
<path d="M111.138 83.5518H104.241V90.4483H111.138V83.5518Z" fill="black"/>
<path d="M124.931 83.5518H118.035V90.4483H124.931V83.5518Z" fill="black"/>
<path d="M131.828 83.5518H124.931V90.4483H131.828V83.5518Z" fill="black"/>
<path d="M152.517 83.5518H145.621V90.4483H152.517V83.5518Z" fill="black"/>
<path d="M159.414 83.5518H152.517V90.4483H159.414V83.5518Z" fill="black"/>
<path d="M166.31 83.5518H159.414V90.4483H166.31V83.5518Z" fill="black"/>
<path d="M173.207 83.5518H166.311V90.4483H173.207V83.5518Z" fill="black"/>
<path d="M7.68976 90.4482H0.793213V97.3448H7.68976V90.4482Z" fill="black"/>
<path d="M14.5862 90.4482H7.6897V97.3448H14.5862V90.4482Z" fill="black"/>
<path d="M35.2759 90.4482H28.3794V97.3448H35.2759V90.4482Z" fill="black"/>
<path d="M55.9656 90.4482H49.0691V97.3448H55.9656V90.4482Z" fill="black"/>
<path d="M62.8621 90.4482H55.9656V97.3448H62.8621V90.4482Z" fill="black"/>
<path d="M69.7586 90.4482H62.8621V97.3448H69.7586V90.4482Z" fill="black"/>
<path d="M76.6553 90.4482H69.7588V97.3448H76.6553V90.4482Z" fill="black"/>
<path d="M97.345 90.4482H90.4485V97.3448H97.345V90.4482Z" fill="black"/>
<path d="M111.138 90.4482H104.241V97.3448H111.138V90.4482Z" fill="black"/>
<path d="M124.931 90.4482H118.035V97.3448H124.931V90.4482Z" fill="black"/>
<path d="M145.621 90.4482H138.724V97.3448H145.621V90.4482Z" fill="black"/>
<path d="M166.31 90.4482H159.414V97.3448H166.31V90.4482Z" fill="black"/>
<path d="M21.483 97.3448H14.5864V104.241H21.483V97.3448Z" fill="black"/>
<path d="M28.3795 97.3448H21.4829V104.241H28.3795V97.3448Z" fill="black"/>
<path d="M35.2759 97.3448H28.3794V104.241H35.2759V97.3448Z" fill="black"/>
<path d="M49.0692 97.3448H42.1726V104.241H49.0692V97.3448Z" fill="black"/>
<path d="M55.9656 97.3448H49.0691V104.241H55.9656V97.3448Z" fill="black"/>
<path d="M76.6553 97.3448H69.7588V104.241H76.6553V97.3448Z" fill="black"/>
<path d="M104.242 97.3448H97.345V104.241H104.242V97.3448Z" fill="black"/>
<path d="M111.138 97.3448H104.241V104.241H111.138V97.3448Z" fill="black"/>
<path d="M138.724 97.3448H131.828V104.241H138.724V97.3448Z" fill="black"/>
<path d="M145.621 97.3448H138.724V104.241H145.621V97.3448Z" fill="black"/>
<path d="M152.517 97.3448H145.621V104.241H152.517V97.3448Z" fill="black"/>
<path d="M159.414 97.3448H152.517V104.241H159.414V97.3448Z" fill="black"/>
<path d="M21.483 104.241H14.5864V111.138H21.483V104.241Z" fill="black"/>
<path d="M28.3795 104.241H21.4829V111.138H28.3795V104.241Z" fill="black"/>
<path d="M35.2759 104.241H28.3794V111.138H35.2759V104.241Z" fill="black"/>
<path d="M62.8621 104.241H55.9656V111.138H62.8621V104.241Z" fill="black"/>
<path d="M76.6553 104.241H69.7588V111.138H76.6553V104.241Z" fill="black"/>
<path d="M90.4483 104.241H83.5518V111.138H90.4483V104.241Z" fill="black"/>
<path d="M104.242 104.241H97.345V111.138H104.242V104.241Z" fill="black"/>
<path d="M111.138 104.241H104.241V111.138H111.138V104.241Z" fill="black"/>
<path d="M131.828 104.241H124.931V111.138H131.828V104.241Z" fill="black"/>
<path d="M138.724 104.241H131.828V111.138H138.724V104.241Z" fill="black"/>
<path d="M145.621 104.241H138.724V111.138H145.621V104.241Z" fill="black"/>
<path d="M159.414 104.241H152.517V111.138H159.414V104.241Z" fill="black"/>
<path d="M166.31 104.241H159.414V111.138H166.31V104.241Z" fill="black"/>
<path d="M7.68976 111.138H0.793213V118.034H7.68976V111.138Z" fill="black"/>
<path d="M14.5862 111.138H7.6897V118.034H14.5862V111.138Z" fill="black"/>
<path d="M28.3795 111.138H21.4829V118.034H28.3795V111.138Z" fill="black"/>
<path d="M35.2759 111.138H28.3794V118.034H35.2759V111.138Z" fill="black"/>
<path d="M49.0692 111.138H42.1726V118.034H49.0692V111.138Z" fill="black"/>
<path d="M55.9656 111.138H49.0691V118.034H55.9656V111.138Z" fill="black"/>
<path d="M62.8621 111.138H55.9656V118.034H62.8621V111.138Z" fill="black"/>
<path d="M69.7586 111.138H62.8621V118.034H69.7586V111.138Z" fill="black"/>
<path d="M83.5518 111.138H76.6553V118.034H83.5518V111.138Z" fill="black"/>
<path d="M97.345 111.138H90.4485V118.034H97.345V111.138Z" fill="black"/>
<path d="M104.242 111.138H97.345V118.034H104.242V111.138Z" fill="black"/>
<path d="M118.034 111.138H111.138V118.034H118.034V111.138Z" fill="black"/>
<path d="M124.931 111.138H118.035V118.034H124.931V111.138Z" fill="black"/>
<path d="M131.828 111.138H124.931V118.034H131.828V111.138Z" fill="black"/>
<path d="M138.724 111.138H131.828V118.034H138.724V111.138Z" fill="black"/>
<path d="M145.621 111.138H138.724V118.034H145.621V111.138Z" fill="black"/>
<path d="M152.517 111.138H145.621V118.034H152.517V111.138Z" fill="black"/>
<path d="M159.414 111.138H152.517V118.034H159.414V111.138Z" fill="black"/>
<path d="M62.8621 118.034H55.9656V124.931H62.8621V118.034Z" fill="black"/>
<path d="M76.6553 118.034H69.7588V124.931H76.6553V118.034Z" fill="black"/>
<path d="M90.4483 118.034H83.5518V124.931H90.4483V118.034Z" fill="black"/>
<path d="M104.242 118.034H97.345V124.931H104.242V118.034Z" fill="black"/>
<path d="M118.034 118.034H111.138V124.931H118.034V118.034Z" fill="black"/>
<path d="M145.621 118.034H138.724V124.931H145.621V118.034Z" fill="black"/>
<path d="M62.8621 124.931H55.9656V131.828H62.8621V124.931Z" fill="black"/>
<path d="M76.6553 124.931H69.7588V131.828H76.6553V124.931Z" fill="black"/>
<path d="M83.5518 124.931H76.6553V131.828H83.5518V124.931Z" fill="black"/>
<path d="M90.4483 124.931H83.5518V131.828H90.4483V124.931Z" fill="black"/>
<path d="M97.345 124.931H90.4485V131.828H97.345V124.931Z" fill="black"/>
<path d="M104.242 124.931H97.345V131.828H104.242V124.931Z" fill="black"/>
<path d="M118.034 124.931H111.138V131.828H118.034V124.931Z" fill="black"/>
<path d="M131.828 124.931H124.931V131.828H131.828V124.931Z" fill="black"/>
<path d="M145.621 124.931H138.724V131.828H145.621V124.931Z" fill="black"/>
<path d="M69.7586 131.828H62.8621V138.724H69.7586V131.828Z" fill="black"/>
<path d="M83.5518 131.828H76.6553V138.724H83.5518V131.828Z" fill="black"/>
<path d="M97.345 131.828H90.4485V138.724H97.345V131.828Z" fill="black"/>
<path d="M118.034 131.828H111.138V138.724H118.034V131.828Z" fill="black"/>
<path d="M145.621 131.828H138.724V138.724H145.621V131.828Z" fill="black"/>
<path d="M152.517 131.828H145.621V138.724H152.517V131.828Z" fill="black"/>
<path d="M159.414 131.828H152.517V138.724H159.414V131.828Z" fill="black"/>
<path d="M62.8621 138.724H55.9656V145.621H62.8621V138.724Z" fill="black"/>
<path d="M76.6553 138.724H69.7588V145.621H76.6553V138.724Z" fill="black"/>
<path d="M90.4483 138.724H83.5518V145.621H90.4483V138.724Z" fill="black"/>
<path d="M97.345 138.724H90.4485V145.621H97.345V138.724Z" fill="black"/>
<path d="M118.034 138.724H111.138V145.621H118.034V138.724Z" fill="black"/>
<path d="M124.931 138.724H118.035V145.621H124.931V138.724Z" fill="black"/>
<path d="M131.828 138.724H124.931V145.621H131.828V138.724Z" fill="black"/>
<path d="M138.724 138.724H131.828V145.621H138.724V138.724Z" fill="black"/>
<path d="M145.621 138.724H138.724V145.621H145.621V138.724Z" fill="black"/>
<path d="M152.517 138.724H145.621V145.621H152.517V138.724Z" fill="black"/>
<path d="M159.414 138.724H152.517V145.621H159.414V138.724Z" fill="black"/>
<path d="M166.31 138.724H159.414V145.621H166.31V138.724Z" fill="black"/>
<path d="M173.207 138.724H166.311V145.621H173.207V138.724Z" fill="black"/>
<path d="M76.6553 145.621H69.7588V152.517H76.6553V145.621Z" fill="black"/>
<path d="M97.345 145.621H90.4485V152.517H97.345V145.621Z" fill="black"/>
<path d="M104.242 145.621H97.345V152.517H104.242V145.621Z" fill="black"/>
<path d="M118.034 145.621H111.138V152.517H118.034V145.621Z" fill="black"/>
<path d="M131.828 145.621H124.931V152.517H131.828V145.621Z" fill="black"/>
<path d="M138.724 145.621H131.828V152.517H138.724V145.621Z" fill="black"/>
<path d="M159.414 145.621H152.517V152.517H159.414V145.621Z" fill="black"/>
<path d="M166.31 145.621H159.414V152.517H166.31V145.621Z" fill="black"/>
<path d="M173.207 145.621H166.311V152.517H173.207V145.621Z" fill="black"/>
<path d="M69.7586 152.517H62.8621V159.414H69.7586V152.517Z" fill="black"/>
<path d="M111.138 152.517H104.241V159.414H111.138V152.517Z" fill="black"/>
<path d="M118.034 152.517H111.138V159.414H118.034V152.517Z" fill="black"/>
<path d="M124.931 152.517H118.035V159.414H124.931V152.517Z" fill="black"/>
<path d="M131.828 152.517H124.931V159.414H131.828V152.517Z" fill="black"/>
<path d="M152.517 152.517H145.621V159.414H152.517V152.517Z" fill="black"/>
<path d="M166.31 152.517H159.414V159.414H166.31V152.517Z" fill="black"/>
<path d="M69.7586 159.414H62.8621V166.31H69.7586V159.414Z" fill="black"/>
<path d="M76.6553 159.414H69.7588V166.31H76.6553V159.414Z" fill="black"/>
<path d="M90.4483 159.414H83.5518V166.31H90.4483V159.414Z" fill="black"/>
<path d="M104.242 159.414H97.345V166.31H104.242V159.414Z" fill="black"/>
<path d="M131.828 159.414H124.931V166.31H131.828V159.414Z" fill="black"/>
<path d="M138.724 159.414H131.828V166.31H138.724V159.414Z" fill="black"/>
<path d="M145.621 159.414H138.724V166.31H145.621V159.414Z" fill="black"/>
<path d="M152.517 159.414H145.621V166.31H152.517V159.414Z" fill="black"/>
<path d="M159.414 159.414H152.517V166.31H159.414V159.414Z" fill="black"/>
<path d="M166.31 159.414H159.414V166.31H166.31V159.414Z" fill="black"/>
<path d="M62.8621 166.31H55.9656V173.207H62.8621V166.31Z" fill="black"/>
<path d="M69.7586 166.31H62.8621V173.207H69.7586V166.31Z" fill="black"/>
<path d="M83.5518 166.31H76.6553V173.207H83.5518V166.31Z" fill="black"/>
<path d="M97.345 166.31H90.4485V173.207H97.345V166.31Z" fill="black"/>
<path d="M104.242 166.31H97.345V173.207H104.242V166.31Z" fill="black"/>
<path d="M111.138 166.31H104.241V173.207H111.138V166.31Z" fill="black"/>
<path d="M159.414 166.31H152.517V173.207H159.414V166.31Z" fill="black"/>
<path d="M166.31 166.31H159.414V173.207H166.31V166.31Z" fill="black"/>
<path d="M173.207 166.31H166.311V173.207H173.207V166.31Z" fill="black"/>
<path d="M41.8277 0.793091H8.03459H0.793213V8.03447V41.8276V49.069H8.03459H41.8277H49.0691V41.8276V8.03447V0.793091H41.8277ZM41.8277 41.8276H8.03459V8.03447H41.8277V41.8276Z" fill="black"/>
<path d="M165.966 0.793091H132.173H124.931V8.03447V41.8276V49.069H132.173H165.966H173.207V41.8276V8.03447V0.793091H165.966ZM165.966 41.8276H132.173V8.03447H165.966V41.8276Z" fill="black"/>
<path d="M41.8277 124.931H8.03459H0.793213V132.172V165.966V173.207H8.03459H41.8277H49.0691V165.966V132.172V124.931H41.8277ZM41.8277 165.966H8.03459V132.172H41.8277V165.966Z" fill="black"/>
<path d="M35.2761 14.5862H14.5864V35.2758H35.2761V14.5862Z" fill="black"/>
<path d="M159.414 14.5862H138.724V35.2758H159.414V14.5862Z" fill="black"/>
<path d="M35.2761 138.724H14.5864V159.414H35.2761V138.724Z" fill="black"/>
</svg>
