<svg width="32" height="32" viewBox="0 0 32 32" fill="none" xmlns="http://www.w3.org/2000/svg">
<path fill-rule="evenodd" clip-rule="evenodd" d="M15.9981 8.7998H16.0017C19.9717 8.7998 23.2 12.03 23.2 15.9999C23.2 19.9699 19.9717 23.2 16.0017 23.2C14.5374 23.2 13.1793 22.7644 12.0408 22.0102L9.27321 22.8949L10.1705 20.2201C9.30741 19.0348 8.7998 17.5749 8.7998 15.9999C8.7998 12.0291 12.0282 8.7998 15.9981 8.7998ZM18.7783 19.9834C19.3282 19.8646 20.0176 19.4578 20.1913 18.9673C20.365 18.4759 20.365 18.0573 20.3146 17.9682C20.2739 17.8976 20.1777 17.8512 20.034 17.7821C19.9966 17.764 19.956 17.7445 19.9123 17.7225C19.7008 17.6172 18.6721 17.1087 18.4777 17.0412C18.2869 16.9692 18.1051 16.9944 17.961 17.1978C17.9337 17.2362 17.9063 17.2746 17.8791 17.3128C17.7054 17.5572 17.5378 17.7928 17.3985 17.943C17.2716 18.078 17.0646 18.0951 16.8909 18.0231C16.872 18.0153 16.8503 18.0065 16.826 17.9967C16.5509 17.8856 15.9409 17.6392 15.2025 16.9818C14.5797 16.4274 14.1567 15.7371 14.0343 15.5301C13.9141 15.3225 14.0178 15.2007 14.1136 15.0881C14.1153 15.0861 14.1171 15.084 14.1189 15.0819C14.1807 15.0055 14.2406 14.9418 14.3008 14.8779C14.3442 14.8319 14.3877 14.7857 14.4321 14.7345C14.4387 14.7269 14.4451 14.7195 14.4514 14.7123C14.5457 14.6038 14.6019 14.5392 14.6652 14.4042C14.7372 14.2647 14.6859 14.1207 14.6346 14.0145C14.5993 13.9401 14.3813 13.4111 14.1941 12.9569C14.114 12.7626 14.0395 12.582 13.9875 12.4566C13.848 12.1227 13.7418 12.1101 13.5303 12.1011C13.5238 12.1007 13.5172 12.1004 13.5106 12.1001C13.4438 12.0967 13.3702 12.093 13.2891 12.093C13.0137 12.093 12.7266 12.174 12.5529 12.3513C12.5468 12.3575 12.5405 12.3639 12.5339 12.3706C12.3117 12.5966 11.8167 13.1 11.8167 14.1036C11.8167 15.1091 12.5301 16.0822 12.6621 16.2623C12.6657 16.2672 12.6689 16.2716 12.6717 16.2753C12.6796 16.2858 12.6946 16.3074 12.7164 16.339C12.9859 16.7293 14.2987 18.6305 16.2564 19.4416C17.9106 20.1274 18.4021 20.0635 18.7783 19.9834Z" fill="white"/>
</svg>
